<?xml version="1.0" standalone="no"?>
<!DOCTYPE svg PUBLIC "-//W3C//DTD SVG 20010904//EN"
 "http://www.w3.org/TR/2001/REC-SVG-20010904/DTD/svg10.dtd">
<svg version="1.0" xmlns="http://www.w3.org/2000/svg"
 width="512.000000pt" height="512.000000pt" viewBox="0 0 512.000000 512.000000"
 preserveAspectRatio="xMidYMid meet">
<metadata>
Created by potrace 1.14, written by Peter Selinger 2001-2017
</metadata>
<g transform="translate(0.000000,512.000000) scale(0.100000,-0.100000)"
fill="#000000" stroke="none">
<path d="M2284 5035 c-747 -95 -1385 -489 -1798 -1110 -79 -118 -210 -379
-261 -519 -47 -127 -99 -331 -122 -476 -26 -164 -26 -588 0 -745 93 -559 327
-1016 718 -1402 128 -127 209 -193 354 -292 564 -385 1278 -520 1950 -368 933
212 1669 950 1880 1887 85 375 78 793 -19 1174 -85 330 -248 655 -470 936 -87
110 -306 324 -422 412 -349 265 -719 423 -1161 494 -139 22 -506 27 -649 9z
m-114 -2330 c259 -596 380 -865 390 -865 10 0 132 270 389 865 l375 865 308 0
308 0 0 -1010 0 -1010 -205 0 -205 0 -2 808 c-3 686 -5 807 -17 807 -9 0 -135
-283 -360 -807 l-346 -808 -245 0 -245 0 -346 808 c-223 519 -351 807 -360
807 -12 0 -14 -124 -17 -808 l-2 -807 -205 0 -205 0 0 1010 0 1010 308 0 308
0 374 -865z"/>
</g>
</svg>
